<svg width="24" height="24" viewBox="0 0 24 24" fill="none" xmlns="http://www.w3.org/2000/svg">
<g id="arrow-right">
<path id="Union" d="M11.4697 5.63673C11.7443 5.36222 12.1791 5.34485 12.4736 5.58497L12.5303 5.63673L18.3643 11.4697L18.415 11.5274C18.6391 11.8023 18.6393 12.1988 18.415 12.4736L18.3643 12.5303L12.5303 18.3643C12.2374 18.6568 11.7625 18.6568 11.4697 18.3643C11.177 18.0715 11.1772 17.5966 11.4697 17.3037L16.0234 12.75H6.16699C5.75285 12.75 5.41711 12.4141 5.41699 12C5.41719 11.586 5.7529 11.25 6.16699 11.25H16.0234L11.4697 6.69727L11.4189 6.64063C11.1784 6.3461 11.1952 5.91143 11.4697 5.63673Z" fill="#171717"/>
</g>
</svg>
