<svg width="24" height="24" viewBox="0 0 24 24" fill="none" xmlns="http://www.w3.org/2000/svg">
<path fill-rule="evenodd" clip-rule="evenodd" d="M12 9.58301C13.7947 9.58321 15.2499 11.0383 15.25 12.833C15.25 14.6278 13.7948 16.0828 12 16.083C10.2052 16.0828 8.75 14.6278 8.75 12.833C8.75013 11.0383 10.2053 9.58318 12 9.58301ZM12 11.083C11.0337 11.0832 10.2501 11.8667 10.25 12.833C10.25 13.7994 11.0337 14.5828 12 14.583C12.9663 14.5828 13.75 13.7994 13.75 12.833C13.7499 11.8667 12.9662 11.0832 12 11.083Z" fill="#171717"/>
<path fill-rule="evenodd" clip-rule="evenodd" d="M14.166 4.58789C14.3575 4.60913 14.5355 4.70291 14.6602 4.85254L16.5186 7.08301H18.667L18.9062 7.09473C19.4592 7.1498 19.9796 7.39463 20.376 7.79102L20.5361 7.96777C20.8886 8.39779 21.0839 8.93915 21.084 9.5V17C21.0839 17.5606 20.8883 18.1013 20.5361 18.5312L20.376 18.709C19.9229 19.162 19.3077 19.4159 18.667 19.416H5.33398C4.69323 19.416 4.07818 19.162 3.625 18.709C3.17186 18.2558 2.91708 17.6408 2.91699 17V9.5C2.91706 8.85915 3.17184 8.24417 3.625 7.79102C4.07818 7.33799 4.69319 7.08301 5.33398 7.08301H7.48242L9.34082 4.85254L9.39746 4.79199C9.53632 4.65879 9.72244 4.58301 9.91699 4.58301H14.084L14.166 4.58789ZM8.41016 8.31348C8.26781 8.48427 8.0563 8.5828 7.83398 8.58301H5.33398C5.09101 8.58301 4.85743 8.67984 4.68555 8.85156C4.5137 9.02341 4.41706 9.25697 4.41699 9.5V17C4.41708 17.2429 4.51382 17.4756 4.68555 17.6475C4.85745 17.8193 5.0909 17.916 5.33398 17.916H18.667C18.91 17.9159 19.1436 17.8193 19.3154 17.6475L19.376 17.5811C19.5095 17.418 19.5839 17.2126 19.584 17V9.5C19.5839 9.28741 19.5095 9.08198 19.376 8.91895L19.3154 8.85156C19.1652 8.70128 18.9674 8.60884 18.7578 8.58789L18.667 8.58301H16.167C15.9723 8.58301 15.7863 8.50737 15.6475 8.37402L15.5908 8.31348L13.7324 6.08301H10.2686L8.41016 8.31348Z" fill="#171717"/>
</svg>
