<svg width="24" height="24" viewBox="0 0 24 24" fill="none" xmlns="http://www.w3.org/2000/svg">
<path fill-rule="evenodd" clip-rule="evenodd" d="M9.97949 8.00586C10.2233 7.87545 10.5199 7.88958 10.75 8.04297L15.75 11.376C15.9583 11.5151 16.0839 11.7495 16.084 12C16.0839 12.2505 15.9583 12.4849 15.75 12.624L10.75 15.958C10.52 16.1114 10.2233 16.1254 9.97949 15.9951C9.73587 15.8647 9.58419 15.6103 9.58398 15.334V8.66699C9.58398 8.3905 9.73578 8.13642 9.97949 8.00586ZM11.084 13.9316L13.9814 12L11.084 10.0674V13.9316Z" fill="#171717"/>
<path fill-rule="evenodd" clip-rule="evenodd" d="M12 2.91699C17.0163 2.91719 21.0838 6.98369 21.084 12C21.0839 17.0164 17.0163 21.0838 12 21.084C6.98364 21.0838 2.91712 17.0164 2.91699 12C2.91717 6.98367 6.98367 2.91717 12 2.91699ZM12 4.41699C7.8121 4.41717 4.41717 7.8121 4.41699 12C4.41712 16.1879 7.81207 19.5838 12 19.584C16.1879 19.5838 19.5839 16.1879 19.584 12C19.5838 7.81211 16.1879 4.41719 12 4.41699Z" fill="#171717"/>
</svg>
