<svg width="24" height="24" viewBox="0 0 24 24" fill="none" xmlns="http://www.w3.org/2000/svg">
<path d="M11.4697 8.13672C11.7626 7.84388 12.2374 7.84399 12.5303 8.13672C12.8229 8.42963 12.8231 8.90445 12.5303 9.19727L10.4775 11.25H15.334L15.4102 11.2539C15.7882 11.2923 16.0838 11.6118 16.084 12C16.0839 12.3882 15.7882 12.7077 15.4102 12.7461L15.334 12.75H10.4775L12.5303 14.8037L12.582 14.8604C12.8221 15.1549 12.8048 15.5897 12.5303 15.8643C12.2558 16.1384 11.8218 16.155 11.5273 15.915L11.4697 15.8643L8.13672 12.5303C7.84399 12.2374 7.84388 11.7626 8.13672 11.4697L11.4697 8.13672Z" fill="#171717"/>
<path fill-rule="evenodd" clip-rule="evenodd" d="M12 2.91699C17.0164 2.91712 21.0838 6.98364 21.084 12C21.0839 17.0164 17.0164 21.0839 12 21.084C6.98364 21.0838 2.91712 17.0164 2.91699 12C2.91717 6.98367 6.98367 2.91717 12 2.91699ZM12 4.41699C7.8121 4.41717 4.41717 7.8121 4.41699 12C4.41712 16.1879 7.81207 19.5838 12 19.584C16.188 19.5839 19.5839 16.188 19.584 12C19.5838 7.81207 16.1879 4.41712 12 4.41699Z" fill="#171717"/>
</svg>
