<svg width="24" height="24" viewBox="0 0 24 24" fill="none" xmlns="http://www.w3.org/2000/svg">
<g id="circle-stop">
<g id="Union">
<path fill-rule="evenodd" clip-rule="evenodd" d="M13.667 8.75C14.5413 8.7502 15.25 9.45966 15.25 10.334V13.667C15.2499 14.5412 14.5412 15.2498 13.667 15.25H10.334C9.45961 15.25 8.75013 14.5413 8.75 13.667V10.334C8.75 9.45953 9.45953 8.75 10.334 8.75H13.667ZM10.334 10.25C10.288 10.25 10.25 10.288 10.25 10.334V13.667C10.2501 13.7129 10.288 13.75 10.334 13.75H13.667C13.7128 13.7498 13.7499 13.7128 13.75 13.667V10.334C13.75 10.2881 13.7128 10.2502 13.667 10.25H10.334Z" fill="#525252"/>
<path fill-rule="evenodd" clip-rule="evenodd" d="M12 2.91699C17.0163 2.91719 21.0838 6.98369 21.084 12C21.0839 17.0164 17.0163 21.0838 12 21.084C6.98364 21.0838 2.91712 17.0164 2.91699 12C2.91717 6.98367 6.98367 2.91717 12 2.91699ZM12 4.41699C7.8121 4.41717 4.41717 7.8121 4.41699 12C4.41712 16.1879 7.81207 19.5838 12 19.584C16.1879 19.5838 19.5839 16.1879 19.584 12C19.5838 7.81211 16.1879 4.41719 12 4.41699Z" fill="#525252"/>
</g>
</g>
</svg>
