<svg width="24" height="24" viewBox="0 0 24 24" fill="none" xmlns="http://www.w3.org/2000/svg">
<g id="circle-pause">
<g id="Union">
<path d="M10.334 8.75C10.7478 8.75034 11.0838 9.08615 11.084 9.5V14.5C11.0839 14.9139 10.7478 15.2497 10.334 15.25C9.91985 15.25 9.58412 14.9141 9.58398 14.5V9.5C9.58416 9.08594 9.91988 8.75 10.334 8.75Z" fill="#525252"/>
<path d="M13.667 8.75C14.081 8.75016 14.4168 9.08604 14.417 9.5V14.5C14.4169 14.914 14.081 15.2498 13.667 15.25C13.2529 15.25 12.9171 14.9141 12.917 14.5V9.5C12.9172 9.08594 13.2529 8.75 13.667 8.75Z" fill="#525252"/>
<path fill-rule="evenodd" clip-rule="evenodd" d="M12 2.91699C17.0163 2.91716 21.0838 6.98366 21.084 12C21.0839 17.0164 17.0164 21.0838 12 21.084C6.98364 21.0838 2.91712 17.0164 2.91699 12C2.91717 6.98367 6.98367 2.91717 12 2.91699ZM12 4.41699C7.8121 4.41717 4.41717 7.8121 4.41699 12C4.41712 16.1879 7.81207 19.5838 12 19.584C16.1879 19.5838 19.5839 16.1879 19.584 12C19.5838 7.81209 16.1879 4.41716 12 4.41699Z" fill="#525252"/>
</g>
</g>
</svg>
