<svg width="24" height="24" viewBox="0 0 24 24" fill="none" xmlns="http://www.w3.org/2000/svg">
<g id="github">
<path id="Union" d="M6.21191 2.91797C6.23004 2.91883 6.25192 2.92056 6.27637 2.92285C6.32548 2.92747 6.38785 2.93533 6.46191 2.94922C6.61069 2.97716 6.80911 3.02864 7.05566 3.12109C7.49806 3.28706 8.09547 3.58648 8.84863 4.12207C10.9323 3.76524 13.0677 3.76529 15.1514 4.12207C15.905 3.58608 16.5028 3.28705 16.9453 3.12109C17.1921 3.02856 17.3903 2.97713 17.5391 2.94922C17.6133 2.93531 17.6755 2.92746 17.7246 2.92285C17.7491 2.92056 17.7709 2.91882 17.7891 2.91797C17.7979 2.91756 17.8062 2.91716 17.8135 2.91699H17.833C17.8334 2.92036 17.8338 2.95444 17.834 3.29297L17.833 2.91699C18.1785 2.91727 18.4806 3.15354 18.5625 3.48926C18.7976 4.45486 18.8192 5.45838 18.6318 6.43164C19.2031 7.34966 19.4765 8.41663 19.417 9.5L19.4082 9.81934C19.2582 12.5744 17.1714 14.2611 14.8984 14.7109C15.2058 15.4387 15.3307 16.2374 15.25 17.0361V20.334C15.2497 20.7478 14.9139 21.0838 14.5 21.084C14.0861 21.0838 13.7503 20.7478 13.75 20.334V17C13.75 16.9727 13.7519 16.9451 13.7549 16.918C13.8491 16.07 13.6059 15.2182 13.0781 14.5479C12.9004 14.3222 12.8668 14.0143 12.9922 13.7559C13.1177 13.4976 13.3798 13.334 13.667 13.334C15.8864 13.3339 17.9169 11.88 17.917 9.5L17.9189 9.45215L17.9258 9.12695C17.9095 8.37152 17.6672 7.64053 17.2236 7.02051C17.0966 6.843 17.0529 6.61834 17.1045 6.40625C17.2467 5.82231 17.2885 5.22069 17.2334 4.62598C16.9448 4.75657 16.5561 4.96762 16.0684 5.31055L15.7832 5.5166C15.6148 5.64283 15.4011 5.69328 15.1943 5.6543C13.2182 5.28004 11.1853 5.25649 9.20215 5.58398L8.80664 5.6543C8.59975 5.69347 8.38531 5.64285 8.2168 5.5166C7.58759 5.04473 7.10001 4.77638 6.75684 4.62207C6.69703 5.21404 6.74087 5.813 6.89258 6.39453L6.90918 6.47559C6.9369 6.6664 6.88993 6.86206 6.77637 7.02051C6.27076 7.72598 6.02547 8.58507 6.08203 9.45117L6.08398 9.5C6.08412 11.8801 8.11443 13.334 10.334 13.334C10.6216 13.3342 10.8838 13.4988 11.0088 13.7578C11.1336 14.0171 11.1 14.3256 10.9209 14.5508C10.6565 14.883 10.4607 15.2607 10.3467 15.6631C10.232 16.0679 10.1986 16.4949 10.2461 16.916L10.25 17V20.334C10.2497 20.7478 9.91388 21.0838 9.5 21.084C9.08614 21.0838 8.75031 20.7478 8.75 20.334V18.0596C8.16127 18.2131 7.62892 18.251 7.13965 18.1865C6.3684 18.0849 5.78729 17.7431 5.33008 17.377C5.10582 17.1973 4.90567 17.0067 4.73242 16.8389C4.55087 16.663 4.40755 16.5208 4.2627 16.3955C4.04622 16.2084 3.89914 16.127 3.7793 16.0977L3.66699 16.084L3.58984 16.0801C3.21204 16.0415 2.91728 15.7219 2.91699 15.334C2.91699 14.9198 3.25278 14.584 3.66699 14.584L3.79395 14.5879C4.42052 14.6279 4.89259 14.9578 5.24316 15.2607C5.42947 15.4218 5.61542 15.6058 5.77637 15.7617C5.94553 15.9256 6.10312 16.0745 6.26855 16.207C6.59127 16.4654 6.92203 16.6447 7.33594 16.6992C7.67393 16.7437 8.121 16.71 8.72656 16.499C8.73077 16.0794 8.78831 15.6599 8.90332 15.2539C8.95598 15.0681 9.02168 14.8868 9.09668 14.71C6.75229 14.2439 4.60864 12.4618 4.58496 9.54883L4.5752 9.32227C4.55274 8.30344 4.82768 7.30087 5.36426 6.43652C5.16321 5.45775 5.18817 4.44837 5.44141 3.47754L5.4834 3.3584C5.60294 3.09327 5.86851 2.917 6.16699 2.91699V3.66699C6.16699 2.96784 6.16648 2.92021 6.16699 2.91699H6.1875C6.19478 2.91717 6.20313 2.91756 6.21191 2.91797Z" fill="#525252"/>
</g>
</svg>
