<svg width="24" height="24" viewBox="0 0 24 24" fill="none" xmlns="http://www.w3.org/2000/svg">
<g id="instagram">
<g id="Union">
<path fill-rule="evenodd" clip-rule="evenodd" d="M10.1553 8.33984C10.9176 7.94431 11.7862 7.79883 12.6357 7.9248L12.957 7.98633C13.6995 8.15822 14.3819 8.53518 14.9238 9.07715C15.543 9.69654 15.9467 10.4989 16.0752 11.3652L16.1104 11.6846C16.1615 12.43 16.0071 13.1778 15.6611 13.8447C15.2656 14.607 14.6391 15.2252 13.8721 15.6113C13.105 15.9974 12.2355 16.1324 11.3877 15.9961C10.5399 15.8597 9.75667 15.4587 9.14941 14.8516C8.54222 14.2444 8.14141 13.461 8.00488 12.6133C7.86847 11.7655 8.00274 10.8959 8.38867 10.1289C8.77476 9.36183 9.39306 8.73542 10.1553 8.33984ZM12.415 9.40918C11.8777 9.32955 11.3288 9.42081 10.8467 9.6709C10.3644 9.92116 9.97281 10.3174 9.72852 10.8027C9.48426 11.2881 9.39903 11.8386 9.48535 12.375C9.57175 12.9113 9.82585 13.4069 10.21 13.791C10.5941 14.175 11.0897 14.4284 11.626 14.5146C12.1624 14.6009 12.713 14.5157 13.1982 14.2715C13.6832 14.0272 14.0789 13.6362 14.3291 13.1543C14.5481 12.7323 14.6457 12.2588 14.6133 11.7871L14.5918 11.585C14.5105 11.037 14.2549 10.5295 13.8633 10.1377C13.5205 9.7949 13.0887 9.55605 12.6191 9.44727L12.415 9.40918Z" fill="#525252"/>
<path d="M16.6689 6.6709C17.0469 6.70955 17.3418 7.02885 17.3418 7.41699C17.3417 7.80504 17.0468 8.12446 16.6689 8.16309L16.5918 8.16699H16.584C16.1699 8.16699 15.8341 7.83109 15.834 7.41699C15.834 7.00278 16.1698 6.66699 16.584 6.66699H16.5918L16.6689 6.6709Z" fill="#525252"/>
<path fill-rule="evenodd" clip-rule="evenodd" d="M16.167 2.91699C18.8823 2.91712 21.084 5.11867 21.084 7.83398V16.167C21.0839 18.8822 18.8822 21.0839 16.167 21.084H7.83398C5.11867 21.084 2.91712 18.8823 2.91699 16.167V7.83398C2.91699 5.11858 5.11858 2.91699 7.83398 2.91699H16.167ZM7.83398 4.41699C5.94701 4.41699 4.41699 5.94701 4.41699 7.83398V16.167C4.41712 18.0539 5.94709 19.584 7.83398 19.584H16.167C18.0538 19.5839 19.5839 18.0538 19.584 16.167V7.83398C19.584 5.94709 18.0539 4.41712 16.167 4.41699H7.83398Z" fill="#525252"/>
</g>
</g>
</svg>
