<svg width="20" height="20" viewBox="0 0 20 20" fill="none" xmlns="http://www.w3.org/2000/svg">
<path fill-rule="evenodd" clip-rule="evenodd" d="M8.15527 6.33984C8.91761 5.94431 9.78619 5.79883 10.6357 5.9248L10.957 5.98633C11.6995 6.15822 12.3819 6.53518 12.9238 7.07715C13.543 7.69654 13.9467 8.49888 14.0752 9.36523L14.1104 9.68457C14.1615 10.43 14.0071 11.1778 13.6611 11.8447C13.2656 12.607 12.6391 13.2252 11.8721 13.6113C11.105 13.9974 10.2355 14.1324 9.3877 13.9961C8.53992 13.8597 7.75667 13.4587 7.14941 12.8516C6.54222 12.2444 6.14141 11.461 6.00488 10.6133C5.86847 9.76552 6.00274 8.89595 6.38867 8.12891C6.77476 7.36183 7.39306 6.73542 8.15527 6.33984ZM10.415 7.40918C9.87774 7.32955 9.32884 7.42081 8.84668 7.6709C8.36437 7.92116 7.97281 8.31738 7.72852 8.80273C7.48426 9.28807 7.39903 9.83857 7.48535 10.375C7.57175 10.9113 7.82585 11.4069 8.20996 11.791C8.59412 12.175 9.0897 12.4284 9.62598 12.5146C10.1624 12.6009 10.713 12.5157 11.1982 12.2715C11.6832 12.0272 12.0789 11.6362 12.3291 11.1543C12.5481 10.7323 12.6457 10.2588 12.6133 9.78711L12.5918 9.58496C12.5105 9.03704 12.2549 8.52946 11.8633 8.1377C11.5205 7.7949 11.0887 7.55605 10.6191 7.44727L10.415 7.40918Z" fill="#171717"/>
<path d="M14.6689 4.6709C15.0469 4.70955 15.3418 5.02885 15.3418 5.41699C15.3417 5.80504 15.0468 6.12446 14.6689 6.16309L14.5918 6.16699H14.584C14.1699 6.16699 13.8341 5.83109 13.834 5.41699C13.834 5.00278 14.1698 4.66699 14.584 4.66699H14.5918L14.6689 4.6709Z" fill="#171717"/>
<path fill-rule="evenodd" clip-rule="evenodd" d="M14.167 0.916992C16.8823 0.917124 19.084 3.11867 19.084 5.83398V14.167C19.0839 16.8822 16.8822 19.0839 14.167 19.084H5.83398C3.11867 19.084 0.917124 16.8823 0.916992 14.167V5.83398C0.916992 3.11858 3.11858 0.916992 5.83398 0.916992H14.167ZM5.83398 2.41699C3.94701 2.41699 2.41699 3.94701 2.41699 5.83398V14.167C2.41712 16.0539 3.94709 17.584 5.83398 17.584H14.167C16.0538 17.5839 17.5839 16.0538 17.584 14.167V5.83398C17.584 3.94709 16.0539 2.41712 14.167 2.41699H5.83398Z" fill="#171717"/>
</svg>
