<svg width="24" height="24" viewBox="0 0 24 24" fill="none" xmlns="http://www.w3.org/2000/svg">
<g id="loader-circle">
<path id="Union" d="M9.4502 4.15333C11.0037 3.64856 12.6698 3.61789 14.2373 4.05958L14.5488 4.15333L14.6211 4.18067C14.9688 4.33405 15.151 4.72944 15.0312 5.09864C14.9111 5.46756 14.5314 5.68065 14.1602 5.60059L14.0859 5.58009L13.8301 5.50294C12.5477 5.14171 11.1849 5.16718 9.91406 5.58009C8.5585 6.02058 7.37688 6.87913 6.53906 8.03223C5.70136 9.18537 5.25001 10.5747 5.25 12C5.2501 13.4253 5.70134 14.8147 6.53906 15.9678C7.37687 17.1207 8.5586 17.9795 9.91406 18.4199C11.2696 18.8603 12.7304 18.8603 14.0859 18.4199C15.4414 17.9795 16.6231 17.1207 17.4609 15.9678C18.2987 14.8148 18.7498 13.4252 18.75 12C18.7502 11.586 19.0859 11.25 19.5 11.25C19.9141 11.25 20.2498 11.586 20.25 12C20.2498 13.742 19.6978 15.4403 18.6738 16.8496C17.6498 18.2588 16.2056 19.3084 14.5488 19.8467C12.8921 20.3848 11.1069 20.384 9.4502 19.8457C7.7936 19.3073 6.34912 18.2588 5.3252 16.8496C4.30129 15.4403 3.7501 13.742 3.75 12C3.75002 10.2579 4.3013 8.55981 5.3252 7.1504C6.34917 5.74104 7.79342 4.69173 9.4502 4.15333Z" fill="black"/>
</g>
</svg>
