<svg width="34" height="28" viewBox="0 0 34 28" fill="none" xmlns="http://www.w3.org/2000/svg">
<path id="Union" fill-rule="evenodd" clip-rule="evenodd" d="M29.2231 0.401855C31.6696 0.402219 33.6541 2.38651 33.6543 4.83301V23.1663C33.654 25.6128 31.6696 27.5953 29.2231 27.5957H4.7793C2.33257 27.5957 0.348467 25.613 0.348145 23.1663V4.83301C0.348387 2.38629 2.33252 0.401855 4.7793 0.401855H29.2231ZM19.3117 16.2287L19.3045 16.234C18.7003 16.6125 18.0128 16.8359 17.3047 16.8857L17.0003 16.8965C16.1861 16.8964 15.388 16.6662 14.6979 16.234L14.689 16.2287L3.09814 8.86133V23.1663C3.09847 24.0942 3.85135 24.8457 4.7793 24.8457H29.2231C30.1508 24.8453 30.904 24.094 30.9043 23.1663V8.86133L19.3117 16.2287ZM4.7793 3.15186C3.8513 3.15186 3.09839 3.90507 3.09814 4.83301V5.60466L16.1553 13.903C16.4079 14.0612 16.7023 14.1464 17.0003 14.1465L17.2223 14.1304C17.4423 14.0993 17.6557 14.0218 17.8454 13.903L30.9043 5.60466V4.83301C30.9041 3.90529 30.1508 3.15222 29.2231 3.15186H4.7793Z" fill="#171717"/>
</svg>
