<svg width="24" height="24" viewBox="0 0 24 24" fill="none" xmlns="http://www.w3.org/2000/svg">
<g id="menu">
<g id="Union">
<path d="M18.7432 16.2539C19.1213 16.2924 19.416 16.6117 19.416 17C19.416 17.3883 19.1213 17.7076 18.7432 17.7461L18.666 17.75H5.33301C4.91893 17.7498 4.58301 17.4141 4.58301 17C4.58301 16.5859 4.91893 16.2502 5.33301 16.25H18.666L18.7432 16.2539Z" fill="#525252"/>
<path d="M18.7432 11.2539C19.1213 11.2924 19.416 11.6117 19.416 12C19.416 12.3883 19.1213 12.7076 18.7432 12.7461L18.666 12.75H5.33301C4.91893 12.7498 4.58301 12.4141 4.58301 12C4.58301 11.5859 4.91893 11.2502 5.33301 11.25H18.666L18.7432 11.2539Z" fill="#525252"/>
<path d="M18.7432 6.25391C19.1213 6.29238 19.416 6.61172 19.416 7C19.416 7.38828 19.1213 7.70762 18.7432 7.74609L18.666 7.75H5.33301C4.91893 7.74984 4.58301 7.41411 4.58301 7C4.58301 6.58589 4.91893 6.25016 5.33301 6.25H18.666L18.7432 6.25391Z" fill="#525252"/>
</g>
</g>
</svg>
