<svg width="24" height="24" viewBox="0 0 24 24" fill="none" xmlns="http://www.w3.org/2000/svg">
<path d="M17.834 9.58398C18.2479 9.58429 18.584 9.91996 18.584 10.334V12L18.5752 12.3271C18.4943 13.9541 17.8126 15.498 16.6553 16.6553C15.5988 17.7118 14.2199 18.3705 12.75 18.5391V20.334C12.7497 20.7479 12.4139 21.0839 12 21.084C11.5861 21.0838 11.2503 20.7478 11.25 20.334V18.5391C9.78037 18.3705 8.4011 17.7115 7.34473 16.6553C6.18762 15.498 5.50566 13.9539 5.4248 12.3271L5.41699 12V10.334C5.41699 9.91977 5.75278 9.58398 6.16699 9.58398C6.58109 9.58412 6.91699 9.91985 6.91699 10.334V12L6.92285 12.252C6.98514 13.5084 7.51247 14.701 8.40625 15.5947C9.35944 16.5477 10.6521 17.0839 12 17.084L12.252 17.0771C13.5084 17.0149 14.701 16.4885 15.5947 15.5947C16.4885 14.701 17.0149 13.5084 17.0771 12.252L17.084 12V10.334C17.084 9.91977 17.4198 9.58398 17.834 9.58398Z" fill="#171717"/>
<path fill-rule="evenodd" clip-rule="evenodd" d="M12.1611 2.9209C12.9644 2.96073 13.7274 3.29772 14.2988 3.86914C14.908 4.47858 15.25 5.30531 15.25 6.16699V12C15.2499 12.8619 14.9083 13.6894 14.2988 14.2988C13.6894 14.9083 12.8619 15.2499 12 15.25C11.1384 15.2499 10.3115 14.908 9.70215 14.2988C9.09271 13.6894 8.75006 12.8619 8.75 12V6.16699C8.75 5.30512 9.09276 4.47862 9.70215 3.86914C10.3116 3.25972 11.1382 2.91708 12 2.91699L12.1611 2.9209ZM12 4.41699C11.536 4.41708 11.0908 4.60158 10.7627 4.92969C10.4346 5.25786 10.25 5.70294 10.25 6.16699V12C10.2501 12.4639 10.4348 12.9092 10.7627 13.2373C11.0908 13.5653 11.5361 13.7499 12 13.75C12.464 13.7499 12.9092 13.5654 13.2373 13.2373C13.5654 12.9092 13.7499 12.464 13.75 12V6.16699C13.75 5.70298 13.5653 5.25785 13.2373 4.92969C12.9501 4.64258 12.5734 4.46552 12.1729 4.42578L12 4.41699Z" fill="#171717"/>
</svg>
