<svg width="24" height="24" viewBox="0 0 24 24" fill="none" xmlns="http://www.w3.org/2000/svg">
<path fill-rule="evenodd" clip-rule="evenodd" d="M17.9838 2.91602C18.8055 2.91614 19.5941 3.2432 20.1752 3.82422C20.7562 4.40542 21.0834 5.1938 21.0834 6.01562C21.0833 6.78625 20.7956 7.52728 20.2807 8.0957L20.1752 8.20703L9.05214 19.3311C8.77212 19.6102 8.42744 19.8175 8.04921 19.9326L4.4203 21.0322L4.41933 21.0332C4.21773 21.0937 4.00236 21.0982 3.79823 21.0469C3.59441 20.9955 3.40797 20.8897 3.25917 20.7412C3.11038 20.5925 3.0042 20.406 2.95253 20.2021C2.90097 19.9982 2.90507 19.7836 2.96522 19.582L2.9662 19.5781L4.06679 15.9521L4.06776 15.9502L4.11561 15.8096C4.23688 15.4863 4.42606 15.1919 4.67128 14.9473L15.7924 3.82324L15.9037 3.71777C16.4721 3.20309 17.2134 2.91613 17.9838 2.91602ZM17.9838 4.41602C17.6128 4.41612 17.2546 4.54515 16.9701 4.77832L16.8529 4.88379L5.73085 16.0088C5.62511 16.1142 5.54555 16.2441 5.50136 16.3867L5.50233 16.3877L4.58339 19.415L7.61268 18.4971L7.71718 18.458C7.81937 18.4127 7.91291 18.3489 7.99257 18.2695L19.1146 7.14648L19.2211 7.02832C19.454 6.74396 19.5833 6.38639 19.5834 6.01562C19.5834 5.59168 19.4143 5.18462 19.1146 4.88477C18.8148 4.58506 18.4077 4.41609 17.9838 4.41602Z" fill="#171717"/>
</svg>
