<svg width="24" height="24" viewBox="0 0 24 24" fill="none" xmlns="http://www.w3.org/2000/svg">
<g id="refresh-cw">
<g id="Union">
<path d="M19.5 11.25C19.9142 11.25 20.25 11.5858 20.25 12C20.25 14.188 19.3812 16.2868 17.834 17.834C16.2868 19.3812 14.188 20.25 12 20.25H11.9971C9.84985 20.2419 7.78345 19.4559 6.17676 18.0459L5.8623 17.7559L5.85254 17.7471L5.25 17.1436V19.5C5.25 19.9142 4.91421 20.25 4.5 20.25C4.08579 20.25 3.75 19.9142 3.75 19.5V15.333C3.75018 14.9189 4.08589 14.583 4.5 14.583H8.66699C9.08095 14.5832 9.41682 14.9191 9.41699 15.333C9.41699 15.7471 9.08106 16.0828 8.66699 16.083H6.31055L6.91406 16.6865C8.2809 18.0032 10.1028 18.7414 12.001 18.749C13.7908 18.7488 15.5078 18.0391 16.7734 16.7734C18.0393 15.5076 18.75 13.7902 18.75 12C18.75 11.5858 19.0858 11.25 19.5 11.25Z" fill="#525252"/>
<path d="M12.4307 3.76172C14.4233 3.86534 16.3235 4.63798 17.8232 5.9541L18.1377 6.24414L18.1475 6.25293L18.75 6.85547V4.5C18.75 4.08579 19.0858 3.75 19.5 3.75C19.9142 3.75 20.25 4.08579 20.25 4.5V8.66699C20.2498 9.08106 19.9141 9.41699 19.5 9.41699H15.333C14.9191 9.41682 14.5832 9.08095 14.583 8.66699C14.583 8.25289 14.9189 7.91717 15.333 7.91699H17.6895L17.0859 7.31348C15.7189 5.99687 13.8963 5.25736 11.998 5.25C10.2085 5.25052 8.49197 5.96115 7.22656 7.22656C5.96069 8.49243 5.25 10.2098 5.25 12C5.25 12.4142 4.91421 12.75 4.5 12.75C4.08579 12.75 3.75 12.4142 3.75 12C3.75 9.81196 4.61884 7.71319 6.16602 6.16602C7.71319 4.61884 9.81196 3.75 12 3.75H12.0029L12.4307 3.76172Z" fill="#525252"/>
</g>
</g>
</svg>
