<svg width="24" height="24" viewBox="0 0 24 24" fill="none" xmlns="http://www.w3.org/2000/svg">
<g id="user-pen">
<g id="Union">
<path fill-rule="evenodd" clip-rule="evenodd" d="M18.8125 12.0957C19.3894 12.153 19.9322 12.4078 20.3457 12.8213C20.8182 13.2939 21.083 13.9352 21.083 14.6035L21.0713 14.8525C21.014 15.4292 20.7589 15.9713 20.3457 16.3848L17.001 19.7266L17 19.7256C16.7131 20.0125 16.3592 20.2231 15.9697 20.3369L15.9688 20.3379L13.5771 21.0352C13.3765 21.0936 13.1634 21.0968 12.9609 21.0449C12.7585 20.993 12.5736 20.888 12.4258 20.7402C12.2779 20.5923 12.173 20.4067 12.1211 20.2041C12.0693 20.0016 12.0723 19.7886 12.1309 19.5879L12.8281 17.1963L12.876 17.0518C12.9792 16.7664 13.1352 16.503 13.3359 16.2754L13.4395 16.1641L16.7812 12.8213L16.9658 12.6543C17.4143 12.2866 17.9785 12.083 18.5635 12.083L18.8125 12.0957ZM18.5635 13.583C18.3267 13.583 18.0985 13.6657 17.917 13.8145L17.8418 13.8818L14.5 17.2256C14.3911 17.3345 14.3117 17.4694 14.2686 17.6172L13.7412 19.4238L15.5488 18.8975L15.6572 18.8584C15.7625 18.8127 15.8588 18.7476 15.9404 18.666L19.2842 15.3242L19.3525 15.25C19.5013 15.0685 19.5829 14.8402 19.583 14.6035L19.5781 14.502C19.5548 14.2686 19.4515 14.0491 19.2842 13.8818C19.1168 13.7146 18.8975 13.611 18.6641 13.5879L18.5635 13.583Z" fill="#525252"/>
<path d="M11.6602 13.7539C12.0383 13.7924 12.333 14.1117 12.333 14.5C12.333 14.8883 12.0383 15.2076 11.6602 15.2461L11.583 15.25H7.83301C7.14798 15.2501 6.49123 15.5224 6.00684 16.0068C5.52244 16.4912 5.25009 17.148 5.25 17.833V19.5C5.25 19.9142 4.91421 20.25 4.5 20.25C4.08579 20.25 3.75 19.9142 3.75 19.5V17.833C3.75009 16.7502 4.18059 15.712 4.94629 14.9463C5.71199 14.1806 6.75016 13.7501 7.83301 13.75H11.583L11.6602 13.7539Z" fill="#525252"/>
<path fill-rule="evenodd" clip-rule="evenodd" d="M10.333 3.75C12.5881 3.75 14.4168 5.57799 14.417 7.83301C14.417 10.0882 12.5882 11.917 10.333 11.917C8.07799 11.9168 6.25 10.0881 6.25 7.83301C6.25018 5.5781 8.0781 3.75018 10.333 3.75ZM10.333 5.25C8.90653 5.25018 7.75018 6.40653 7.75 7.83301C7.75 9.25963 8.90642 10.4168 10.333 10.417C11.7597 10.417 12.917 9.25974 12.917 7.83301C12.9168 6.40642 11.7596 5.25 10.333 5.25Z" fill="#525252"/>
</g>
</g>
</svg>
