<svg width="56" height="52" viewBox="0 0 56 52" fill="none" xmlns="http://www.w3.org/2000/svg">
<g id="Group 59433">
<path id="Vector" fill-rule="evenodd" clip-rule="evenodd" d="M40.4443 14.4999C39.981 14.5088 39.4557 14.5673 39.3059 14.6521C39.1504 14.7167 39.0443 14.7244 39.0734 14.673C39.1025 14.6216 38.8242 14.6336 38.4565 14.7136C38.0758 14.7863 37.7171 14.8204 37.6529 14.784C37.5887 14.7476 37.4332 14.8123 37.3073 14.9445C37.1686 15.0695 37.0222 15.0883 36.9284 14.9842C36.842 14.8674 36.7341 14.908 36.6395 15.075C36.5594 15.2162 36.4643 15.2642 36.4091 15.1819C36.3667 15.107 36.2734 15.122 36.2079 15.2376C36.1278 15.3788 36.0345 15.3938 35.9352 15.2696C35.8543 15.1728 35.7571 15.1347 35.7207 15.1989C35.6916 15.2503 35.3075 15.3889 34.8849 15.5057C34.4624 15.6225 34.0967 15.7886 34.0933 15.8545C34.0971 15.9076 34.0278 15.9701 33.9216 15.9777C33.8355 15.9799 33.684 16.0976 33.6039 16.2388C33.5311 16.3673 33.4142 16.4537 33.3371 16.41C33.2729 16.3736 33.1577 16.4271 33.0995 16.5299C33.0412 16.6326 32.959 16.6878 32.9077 16.6587C32.6029 16.418 32.4565 16.4368 32.3879 16.7373C32.3575 16.9407 32.2881 17.0032 32.2402 16.9081C32.137 16.7309 31.6596 16.8845 31.7225 17.0729C31.7319 17.1461 31.6587 17.1555 31.5432 17.0899C31.3248 16.9662 31.2354 17.0342 30.9805 17.4837C30.9077 17.6121 30.7981 17.6857 30.7339 17.6493C30.6697 17.6129 30.6277 17.657 30.6226 17.7559C30.6174 17.8548 30.5588 17.8385 30.4779 17.7418C30.3161 17.5482 30.1718 17.6531 30.0047 18.0675C29.9795 18.1719 29.9062 18.1813 29.8639 18.1064C29.8215 18.0315 29.5325 18.1222 29.2182 18.3173C28.8766 18.5309 28.6886 18.7128 28.7493 18.8151C28.8046 18.8973 28.62 19.0133 28.3456 19.0783C28.0711 19.1434 27.7843 19.3201 27.7042 19.4614C27.6241 19.6026 27.4652 19.7332 27.3792 19.7353C27.273 19.743 27.1488 19.8423 27.0962 19.9652C27.0362 20.1009 26.7095 20.4078 26.3515 20.68C25.988 20.9321 25.6283 21.2372 25.5444 21.3254C25.4605 21.4136 25.3838 21.4889 25.371 21.4816C25.3453 21.4671 25.0734 21.7372 24.5681 22.2992C24.3219 22.5838 23.6286 23.3278 23.0265 23.9707C21.2623 25.8553 21.2131 25.9123 21.0841 26.2295C21.0225 26.3981 20.924 26.512 20.8598 26.4756C20.757 26.4174 20.2406 26.9391 19.785 27.5632C19.6702 27.7357 19.5644 27.8624 19.5516 27.8552C19.5387 27.8479 19.4475 27.9489 19.3546 28.0829C18.7165 28.909 18.2806 29.4085 17.8717 29.7707C17.6143 30.0151 17.3553 30.2924 17.297 30.3952C17.2259 30.4906 16.7575 31.1074 16.2543 31.7555C14.7045 33.7109 13.7773 35.6458 14.3287 35.7208C14.4533 35.7405 14.6014 35.6887 14.6596 35.586C14.7179 35.4833 14.8772 35.4717 15.0184 35.5518C15.1597 35.6319 15.3648 35.6294 15.4615 35.5485C15.5711 35.4749 15.6773 35.4672 15.7197 35.5421C15.762 35.617 15.8207 35.6333 15.8699 35.5764C15.8991 35.525 16.034 35.347 16.1414 35.1873C16.2691 35.0221 16.4408 34.8988 16.5324 34.9168C16.6368 34.9421 16.7738 34.8501 16.8466 34.7216C16.9122 34.6061 17.104 34.4772 17.2705 34.4529C17.4315 34.4084 17.6323 34.2337 17.7086 34.0394C17.8139 33.7937 17.9163 33.7329 18.0173 33.8241C18.1183 33.9153 18.1804 33.8657 18.2018 33.7081C18.2288 33.5707 18.4203 33.3229 18.654 33.1499C19.0887 32.8024 19.1653 32.7271 19.2818 32.5216C19.3182 32.4574 19.397 32.4681 19.4393 32.543C19.4873 32.6381 19.6042 32.5516 19.7206 32.3462C19.8299 32.1535 20.0636 31.9806 20.2503 31.9507C20.4552 31.9085 20.4771 31.8699 20.3158 31.8351C19.9823 31.7648 20.0187 31.7006 20.5013 31.4481C20.7188 31.3339 20.9183 31.3112 20.9607 31.3861C21.003 31.4611 21.069 31.4645 21.1126 31.3874C21.149 31.3232 21.1559 31.1914 21.1007 31.1092C21.0583 31.0342 21.0524 30.8951 21.0888 30.8309C21.1325 30.7538 21.1856 30.75 21.2352 30.8121C21.2647 30.8797 21.4086 30.6559 21.5705 30.3404C21.7504 29.9333 21.9328 29.7312 22.1542 29.67C22.3353 29.62 22.5562 29.4398 22.6581 29.26C22.7528 29.0931 23.1086 28.7348 23.4409 28.448C23.7787 28.1814 24.0104 27.9224 23.9719 27.9006C23.9205 27.8714 24.0083 27.8364 24.1547 27.8175C24.3671 27.8022 24.3962 27.7508 24.2969 27.6266C24.1976 27.5025 24.2267 27.4511 24.4297 27.3625C24.6382 27.2941 24.6746 27.2298 24.5971 27.0671C24.5124 26.9173 24.5342 26.8788 24.6716 26.9058C24.9007 26.9508 25.4689 26.0681 25.3328 25.8891C25.2905 25.8142 25.3179 25.7958 25.4078 25.8467C25.4921 25.8776 25.6201 25.8314 25.6784 25.7286C25.7366 25.6259 25.9524 25.5446 26.1502 25.5549C26.3968 25.559 26.4582 25.4806 26.3343 25.3199C26.2222 25.1885 26.2128 25.1152 26.3027 25.1662C26.387 25.197 26.5223 25.138 26.608 25.0169C26.7026 24.8499 26.7266 24.8974 26.6927 25.1667C26.6623 25.3701 26.714 25.5182 26.8129 25.5234C27.0381 25.5153 27.2347 25.1685 27.0677 25.0739C27.0035 25.0375 26.9976 24.8983 27.0704 24.7699C27.1577 24.6158 27.2035 24.6248 27.2095 24.764C27.2099 24.883 27.3705 24.7195 27.5799 24.38C28.108 23.5085 28.2484 23.3505 28.3734 23.4893C28.4359 23.5586 28.3943 23.7217 28.3087 23.8429C28.1755 23.988 28.1922 24.0483 28.333 24.0094C28.4739 23.9705 28.5959 23.7851 28.6662 23.4516C28.7999 22.9165 29.3493 22.3965 29.3616 22.7938C29.3701 23.138 29.8197 22.8838 29.866 22.5027C29.9144 22.2078 29.9016 22.2005 29.7487 22.4702C29.6121 22.6812 29.5316 22.7035 29.4011 22.5446C29.2889 22.4131 29.3052 22.3545 29.4169 22.3669C29.5214 22.3922 29.6584 22.3002 29.7385 22.1589C29.8186 22.0177 29.9886 21.9274 30.1131 21.9471C30.245 21.954 30.3859 21.915 30.4368 21.8251C30.4805 21.7481 30.6762 21.6724 30.8684 21.6625C31.2657 21.6502 31.5702 21.2628 31.2294 21.2054C31.0718 21.1839 31.0496 21.1035 31.1644 20.9309C31.25 20.8098 31.3926 20.7379 31.4825 20.7889C31.5724 20.8398 31.6931 20.8065 31.7514 20.7037C31.8023 20.6138 32.1149 20.4516 32.4441 20.3498C32.7661 20.2608 33.0804 20.0657 33.1403 19.93C33.193 19.8071 33.4649 19.537 33.7462 19.3401C34.0275 19.1433 34.2832 18.9318 34.3269 18.8548C34.3633 18.7906 34.5499 18.7606 34.713 18.8022C34.975 18.8489 35.0226 18.8249 34.9323 18.655C34.842 18.485 34.8694 18.4666 35.0492 18.5685C35.1776 18.6413 35.3257 18.5895 35.4204 18.4226C35.5005 18.2813 35.6028 18.2206 35.6451 18.2955C35.7538 18.4929 36.4757 18.0876 36.5169 17.8055C36.5366 17.6809 36.6937 17.5833 36.8988 17.5808C37.0966 17.5911 37.2996 17.5025 37.3578 17.3998C37.416 17.297 37.8622 17.1088 38.3434 17.0083C38.8319 16.8949 39.2506 16.725 39.2631 16.6133C39.2755 16.5015 39.4986 16.4074 39.7585 16.3681C40.2106 16.3189 40.4906 16.274 41.8867 15.9965L42.5546 15.866L42.392 15.4344C42.1794 14.8218 41.4696 14.4873 40.4443 14.4999ZM30.2845 21.1958C30.2627 21.2343 30.1749 21.2694 30.076 21.2642C29.99 21.2664 29.9403 21.2043 29.9767 21.1401C30.0204 21.063 30.121 21.0352 30.1852 21.0716C30.2623 21.1153 30.2991 21.1701 30.2845 21.1958ZM26.4256 24.7099C26.3892 24.7741 26.2886 24.8019 26.2116 24.7582C26.1474 24.7218 26.1581 24.643 26.233 24.6007C26.3152 24.5454 26.4085 24.5305 26.4471 24.5523C26.4728 24.5669 26.4693 24.6328 26.4256 24.7099ZM15.8902 35.0618C15.9068 35.1222 15.7934 35.1427 15.6174 35.0939C15.4287 35.0377 15.3606 34.9482 15.4188 34.8455C15.5135 34.6786 15.8234 34.8203 15.8902 35.0618Z" fill="#171717"/>
<path id="Vector_2" fill-rule="evenodd" clip-rule="evenodd" d="M15.218 4.96926C15.0797 5.21326 14.4773 5.22813 14.2843 4.99991C14.1666 4.84833 14.0608 4.97503 13.6843 5.72887C12.895 7.30076 12.5668 8.7777 11.8165 14.2917C11.7483 14.7113 11.6673 15.1235 11.6163 15.2134C11.5727 15.2905 11.5559 15.7391 11.5922 16.184C11.6212 16.6416 11.586 17.0629 11.4965 17.1309C11.3231 17.2872 11.2282 18.4722 11.3824 18.5595C11.4337 18.5887 11.3759 18.8104 11.2448 19.0416C11.1138 19.2727 10.9947 19.7822 10.9813 20.1649C10.9607 20.5605 10.8925 20.98 10.827 21.0956C10.7542 21.224 10.7203 21.4933 10.743 21.6928C10.7729 21.8795 10.739 22.1487 10.6735 22.2643C10.6007 22.3927 10.6067 22.5319 10.6837 22.5756C10.7479 22.612 10.7573 22.6852 10.6897 22.7147C10.5874 22.7755 10.2442 24.1591 10.1717 24.9156C10.1343 25.2508 9.7144 27.2187 9.37676 28.6225C9.27393 29.0733 9.1548 29.5827 9.13893 29.7604C9.11021 29.9308 9.01293 30.4017 8.88613 30.8049C8.24392 33.1051 8.13795 34.2498 8.56599 34.6622C8.83052 34.914 8.91616 34.7928 8.93942 34.0933C8.95792 33.6117 8.97248 33.586 9.07775 33.8493C9.17017 34.1053 9.24167 34.1289 9.54351 34.0455C9.74473 33.9899 9.90743 33.9124 9.91643 33.8666C9.91259 33.8135 9.99864 33.8114 10.0885 33.8624C10.1656 33.906 10.3338 33.8487 10.4525 33.7293C10.5912 33.6043 10.8309 33.5705 11.0839 33.663C11.4671 33.7954 11.5549 33.7603 11.8957 33.3087C12.109 33.0224 12.3993 32.7797 12.5384 32.7737C12.7508 32.7583 12.7654 32.7327 12.6639 32.5224C12.5976 32.4 12.646 32.105 12.7642 31.8666C13.2482 30.9531 13.288 30.8229 13.071 30.5472L12.8485 30.2513L13.122 30.4573C13.39 30.6431 13.4521 30.5935 13.7818 30.1016C14.0113 29.7566 14.0512 29.6265 13.8996 29.7442C13.6988 29.9188 13.6949 29.8657 13.8547 29.4642C13.9545 29.1983 14.1185 28.9689 14.2046 28.9668C14.3108 28.9591 14.3104 28.8401 14.2329 28.6774C14.1273 28.5044 14.1711 28.467 14.3643 28.5652C14.5184 28.6526 14.6833 28.6612 14.727 28.5842C14.7634 28.5199 14.7338 28.4523 14.6606 28.4617C14.5874 28.4711 14.5519 28.2643 14.5914 28.0152C14.6488 27.6744 14.6998 27.5845 14.7879 27.6684C14.9844 27.8307 15.1626 27.4566 14.9879 27.2558C14.9071 27.159 14.8467 27.1757 14.8471 27.2947C14.8548 27.4009 14.7927 27.4505 14.7285 27.4141C14.5872 27.334 14.6707 27.1268 15.2639 26.0207C15.4476 25.6667 15.5145 25.3991 15.4246 25.3481C15.142 25.188 15.1999 24.9662 15.5489 24.7398C15.8229 24.5558 15.894 24.4603 15.8439 24.2792C15.805 24.1384 15.8354 23.935 15.9082 23.8066C15.9738 23.691 15.9712 23.4859 15.9049 23.3635C15.8257 23.2338 15.8849 22.86 16.0575 22.4658C16.2027 22.0899 16.3055 21.6391 16.2628 21.4452C16.2255 21.2713 16.2543 21.101 16.3146 21.0843C16.3823 21.0547 16.4311 20.8788 16.4157 20.6664C16.3931 20.4669 16.427 20.1977 16.4998 20.0692C16.5726 19.9408 16.5795 19.809 16.5024 19.7653C16.4382 19.7289 16.4395 19.5769 16.5196 19.4356C16.5997 19.2944 16.6138 19.1497 16.5368 19.106C16.4726 19.0696 16.4953 18.7601 16.5802 18.4009C16.6706 18.0618 16.7207 17.7339 16.6912 17.6663C16.6266 17.5108 16.7378 15.7581 16.8179 15.6169C16.8616 15.5398 16.8261 15.333 16.7431 15.1502C16.66 14.9674 16.6318 14.7478 16.6828 14.6579C16.7993 14.4524 16.8486 13.8864 16.8227 13.2438C16.8052 12.9454 16.8279 12.6359 16.8862 12.5332C16.9243 12.436 16.9068 12.1376 16.8216 11.8687C16.7365 11.5998 16.719 11.3014 16.7845 11.1858C16.8428 11.0831 16.8038 10.9423 16.7011 10.884C16.5213 10.7821 16.5192 10.696 16.7556 10.2192C16.8156 10.0835 16.8071 9.73924 16.7438 9.43184C16.6805 9.12444 16.6831 8.82048 16.7525 8.75799C16.8218 8.69549 16.7911 8.2708 16.6833 7.80241C16.5755 7.33403 16.4361 6.71195 16.3912 6.43195C16.3334 6.14467 16.2282 5.88136 16.1383 5.83039C16.0685 5.77387 16.0077 5.67153 16.0257 5.57992C16.0493 5.50843 15.8819 5.29476 15.6927 5.11963C15.4081 4.8734 15.2908 4.84084 15.218 4.96926Z" fill="#171717"/>
<path id="Vector_3" fill-rule="evenodd" clip-rule="evenodd" d="M47.7369 31.7188C47.7077 31.7702 47.5519 31.7158 47.4068 31.5826C47.2232 31.4276 47.0327 31.4044 46.8828 31.4892C46.733 31.5739 46.6413 31.5559 46.6337 31.4497C46.6273 31.1916 44.4016 30.897 43.8621 31.1003C43.7067 31.1649 43.5016 31.1674 43.4245 31.1237C43.3475 31.08 43.115 31.101 42.9065 31.1694C42.7108 31.2452 42.4527 31.2515 42.35 31.1933C42.2472 31.1351 42.1282 31.1355 42.0845 31.2125C42.0481 31.2767 41.9218 31.29 41.8191 31.2317C41.7035 31.1662 41.537 31.1906 41.4402 31.2715C41.3306 31.3451 41.1383 31.3549 41.0099 31.2821C40.8815 31.2093 40.7223 31.2208 40.6713 31.3107C40.5257 31.5675 39.9657 31.6573 39.4507 31.5181C39.2161 31.453 38.8132 31.4452 38.5717 31.5119C38.3303 31.5787 37.8653 31.6205 37.5357 31.6033C37.2116 31.6063 36.9188 31.6439 36.8896 31.6953C36.8532 31.7595 36.7543 31.7543 36.6644 31.7033C36.4718 31.5941 35.4841 31.8996 35.4554 32.07C35.4318 32.1415 35.3072 32.1218 35.1531 32.0344C35.0119 31.9543 34.8928 31.9547 34.9022 32.0279C34.9044 32.114 34.5734 32.2488 34.1526 32.3326C33.7317 32.4164 33.3477 32.5551 33.304 32.6321C33.253 32.722 33.1323 32.7554 33.0552 32.7117C32.8754 32.6098 31.1924 33.0641 31.0905 33.2439C31.0614 33.2953 30.721 33.3568 30.3365 33.3765C29.9594 33.3832 29.619 33.4448 29.5899 33.4962C29.5389 33.5861 29.0654 33.7928 28.5276 33.963C28.3795 34.0148 28.2296 34.0996 28.1859 34.1766C28.1423 34.2537 27.9611 34.3037 27.7634 34.2934C27.5583 34.2959 27.4011 34.3935 27.3814 34.5181C27.3617 34.6427 27.2924 34.7052 27.2281 34.6688C27.1639 34.6323 26.9006 34.7376 26.6484 34.8831C26.1898 35.1831 26.1205 35.2456 25.9436 35.4678C25.9072 35.532 25.7681 35.538 25.6654 35.4797C25.4342 35.3487 25.2629 35.5909 25.4868 35.7348C25.5565 35.7914 25.4705 35.7935 25.2616 35.7429C25.0069 35.6834 24.8386 35.7407 24.6947 35.9646C24.3487 36.5151 24.2866 36.5647 24.0811 36.4482C23.9527 36.3754 23.8576 36.4234 23.8379 36.5479C23.8182 36.6725 23.7527 36.7881 23.6923 36.8048C23.6191 36.8142 23.4585 36.9777 23.3365 37.163C23.2089 37.3283 23.0354 37.4845 22.9494 37.4866C22.7169 37.5076 21.967 38.8303 21.9447 39.2588C21.9168 39.6673 22.207 39.9336 22.3599 39.6639C22.5329 39.3887 23.4769 39.1602 23.7723 39.3277C23.9906 39.4515 24.0437 39.4476 23.9534 39.2776C23.8207 39.0327 23.9762 38.9681 25.8253 38.3704C26.3631 38.2001 27.338 37.8874 28.0238 37.6653C29.5639 37.1639 36.0785 35.4608 38.3784 34.9659C38.8322 34.8838 39.1906 34.7306 39.1885 34.6446C39.1863 34.5585 39.3439 34.58 39.5237 34.6819C39.7163 34.7911 39.861 34.8053 39.8533 34.6991C39.8585 34.6002 39.9647 34.5925 40.1188 34.6799C40.2729 34.7672 40.3863 34.7467 40.3842 34.6607C40.3894 34.5618 40.4313 34.5177 40.4955 34.5541C40.5597 34.5905 40.7152 34.5259 40.8338 34.4064C40.9524 34.287 41.1335 34.237 41.2491 34.3025C41.3646 34.368 41.5055 34.3291 41.5638 34.2264C41.622 34.1236 41.7372 34.0701 41.8271 34.1211C41.9041 34.1648 42.1422 34.164 42.3562 34.1156C42.6362 34.0707 42.7278 34.0887 42.7008 34.2262C42.6558 34.4552 43.1829 34.3637 43.3212 34.1197C43.3722 34.0298 43.4839 34.0422 43.5575 34.1518C43.6697 34.2833 43.7574 34.2482 43.8739 34.0427C43.9893 33.8592 44.0583 33.8871 44.0811 34.1263C44.1039 34.3654 44.2629 34.4442 44.558 34.3627L44.9806 34.2459L44.5901 34.1264C44.3115 34.0193 44.249 33.9499 44.3714 33.8836C44.4665 33.8356 44.6313 33.8442 44.734 33.9025C44.8368 33.9607 44.9794 33.8888 45.0594 33.7476C45.1395 33.6063 45.2564 33.5198 45.3206 33.5562C45.3848 33.5926 45.8425 33.5636 46.3494 33.4777C46.849 33.4046 47.5263 33.3473 47.823 33.3628C48.7662 33.4054 48.9635 33.2967 48.8686 32.8356C48.8202 32.6215 48.7043 32.437 48.5925 32.4245C48.4808 32.4121 48.4127 32.3226 48.4235 32.2438C48.4595 32.0606 47.8242 31.5647 47.7369 31.7188Z" fill="#171717"/>
</g>
</svg>
