<svg width="32" height="26" viewBox="0 0 32 26" fill="none" xmlns="http://www.w3.org/2000/svg">
<path id="Vector 23" d="M9.63795 3.67554C8.8167 5.91254 10.7491 9.67554 10.7491 9.67554C10.7491 9.67554 8.98351 9.16397 7.63795 9.2311C6.29238 9.29823 5.45945 9.29633 4.24129 9.87177C2.62362 10.6359 1.33271 11.3177 0.749057 13.0089C0.520804 13.6703 0.426222 14.0943 0.526835 14.7867C0.684514 15.8718 2.46352 16.5384 3.63795 16.7867C5.86019 17.2563 9.41572 17.4533 9.41572 17.4533C9.41572 17.4533 6.74189 18.9028 6.30461 20.5644C6.08376 21.4037 6.06358 21.953 6.30461 22.7867C6.82044 24.5708 8.28557 25.2057 10.0824 25.6755C11.2578 25.9829 12.3063 25.9822 13.1935 25.6755C14.0807 25.3689 14.7572 25.0974 15.1935 24.3422C15.6298 23.587 15.4157 22.12 15.4157 22.12C15.4157 22.12 16.1979 22.8366 16.7491 23.2311C18.3613 24.3852 20.0191 25.0485 21.4157 25.2311C23.694 25.529 25.642 25.8147 27.1935 24.12C27.7968 23.461 28.2328 23.0106 28.3046 22.12C28.3605 21.4273 27.6629 20.1778 27.1935 19.6755C26.2413 18.3162 24.0824 18.3422 24.0824 18.3422C24.0824 18.3422 26.7896 18.0133 28.3046 17.2311C29.4613 16.6339 30.3513 16.3757 30.9713 15.2311C31.4334 14.378 31.6545 13.7271 31.4157 12.7867C30.6858 11.4273 29.4888 11.0747 28.0191 10.5384C26.4635 10.094 25.6479 9.97994 24.0824 10.12C22.0589 10.301 19.1935 11.8978 19.1935 11.8978C19.1935 11.8978 18.9521 8.88825 18.5268 7.00887C18.0422 4.86756 18.0824 3.45331 16.7491 1.67554C15.8397 0.463062 14.7017 -0.0295412 13.1935 0.119987C11.2394 0.313723 10.3147 1.83216 9.63795 3.67554Z" fill="white"/>
</svg>
