<svg width="20" height="16" viewBox="0 0 20 16" fill="none" xmlns="http://www.w3.org/2000/svg">
<path d="M6.18257 2.40515C5.68982 3.74735 6.84924 6.00515 6.84924 6.00515C6.84924 6.00515 5.78991 5.69821 4.98257 5.73849C4.17523 5.77877 3.67548 5.77763 2.94458 6.12289C1.97398 6.58139 1.19943 6.99043 0.849239 8.00515C0.712287 8.40199 0.655538 8.65638 0.715906 9.07182C0.810513 9.72289 1.87791 10.1229 2.58257 10.2718C3.91592 10.5536 6.04924 10.6718 6.04924 10.6718C6.04924 10.6718 4.44494 11.5415 4.18257 12.5385C4.05006 13.042 4.03795 13.3716 4.18257 13.8718C4.49207 14.9423 5.37114 15.3232 6.44924 15.6052C7.1545 15.7896 7.78359 15.7892 8.31591 15.6052C8.84822 15.4211 9.25414 15.2583 9.51591 14.8052C9.77767 14.352 9.64924 13.4718 9.64924 13.4718C9.64924 13.4718 10.1186 13.9018 10.4492 14.1385C11.4166 14.831 12.4113 15.2289 13.2492 15.3385C14.6162 15.5172 15.785 15.6887 16.7159 14.6718C17.0779 14.2764 17.3395 14.0062 17.3826 13.4718C17.4161 13.0562 16.9975 12.3065 16.7159 12.0052C16.1446 11.1896 14.8492 11.2052 14.8492 11.2052C14.8492 11.2052 16.4736 11.0078 17.3826 10.5385C18.0766 10.1802 18.6106 10.0253 18.9826 9.33849C19.2598 8.8266 19.3925 8.43608 19.2492 7.87182C18.8113 7.05622 18.0931 6.84467 17.2113 6.52289C16.2779 6.25622 15.7885 6.18779 14.8492 6.27182C13.6352 6.38043 11.9159 7.33849 11.9159 7.33849C11.9159 7.33849 11.7711 5.53278 11.5159 4.40515C11.2252 3.12037 11.2492 2.27182 10.4492 1.20515C9.90362 0.477666 9.22083 0.182104 8.31591 0.271822C7.14345 0.388063 6.58862 1.29913 6.18257 2.40515Z" fill="#171717"/>
</svg>
